<?xml version="1.0" standalone="no"?><!DOCTYPE svg PUBLIC "-//W3C//DTD SVG 1.1//EN" "http://www.w3.org/Graphics/SVG/1.1/DTD/svg11.dtd"><svg t="1611204105512" class="icon" viewBox="0 0 1024 1024" version="1.1" xmlns="http://www.w3.org/2000/svg" p-id="1613" xmlns:xlink="http://www.w3.org/1999/xlink" width="200" height="200"><defs><style type="text/css"></style></defs><path d="M101.1 870.7c-4.8-3.7-5.7-10.6-2-15.4L661 121.1c3.7-4.8 10.6-5.7 15.4-2 4.8 3.7 5.7 10.6 2 15.4L116.5 868.7c-3.7 4.8-10.6 5.7-15.4 2z" fill="#CE302F" p-id="1614"></path><path d="M97.8 875c-7.2-5.5-8.5-15.8-3.1-22.9l561.9-734.2c5.5-7.2 15.8-8.5 22.9-3.1 7.2 5.5 8.5 15.8 3.1 22.9L120.8 871.9c-5.5 7.2-15.8 8.6-23 3.1zM673 123.4c-2.4-1.9-5.9-1.4-7.8 1L103.3 858.6c-1.9 2.4-1.4 5.9 1 7.8 2.4 1.9 5.9 1.4 7.8-1L674 131.2c1.9-2.5 1.5-6-1-7.8z" fill="#333333" p-id="1615"></path><path d="M555.4 277.1m-80.4 0a80.4 80.4 0 1 0 160.8 0 80.4 80.4 0 1 0-160.8 0Z" fill="#CE302F" p-id="1616"></path><path d="M503.2 345.2c-37.6-28.8-44.8-82.8-16-120.3s82.8-44.8 120.3-16c37.6 28.8 44.8 82.8 16 120.3s-82.7 44.8-120.3 16zM601 217.5c-32.9-25.2-80.1-18.9-105.2 14-25.2 32.9-18.9 80.1 14 105.2 32.9 25.2 80.1 18.9 105.2-14s18.9-80.1-14-105.2z" fill="#333333" p-id="1617"></path><path d="M666.3 132.2m-80.4 0a80.4 80.4 0 1 0 160.8 0 80.4 80.4 0 1 0-160.8 0Z" fill="#CE302F" p-id="1618"></path><path d="M614.1 200.4c-37.6-28.8-44.8-82.8-16-120.3 28.8-37.6 82.8-44.8 120.3-16 37.6 28.8 44.8 82.8 16 120.3s-82.7 44.7-120.3 16z m97.8-127.8c-32.9-25.2-80.1-18.9-105.2 14-25.2 32.9-18.9 80.1 14 105.2 32.9 25.2 80.1 18.9 105.2-14s18.8-80.1-14-105.2z" fill="#333333" p-id="1619"></path><path d="M614.038045 191.72235a71.6 77.9 37.426 1 0 94.685311-123.726844 71.6 77.9 37.426 1 0-94.685311 123.726844Z" fill="#D34242" p-id="1620"></path><path d="M511.759946 340.049987a71.6 76.4 37.426 1 0 92.862102-121.344427 71.6 76.4 37.426 1 0-92.862102 121.344427Z" fill="#D34242" p-id="1621"></path><path d="M444.5 421.9m-80.4 0a80.4 80.4 0 1 0 160.8 0 80.4 80.4 0 1 0-160.8 0Z" fill="#CE302F" p-id="1622"></path><path d="M392.4 490.1c-37.6-28.8-44.8-82.8-16-120.3 28.8-37.6 82.8-44.8 120.3-16 37.6 28.8 44.8 82.8 16 120.3-28.8 37.6-82.8 44.8-120.3 16z m97.7-127.8c-32.9-25.2-80.1-18.9-105.2 14-25.2 32.9-18.9 80.1 14 105.2 32.9 25.2 80.1 18.9 105.2-14 25.2-32.8 18.9-80-14-105.2z" fill="#333333" p-id="1623"></path><path d="M333.7 566.8m-80.4 0a80.4 80.4 0 1 0 160.8 0 80.4 80.4 0 1 0-160.8 0Z" fill="#CE302F" p-id="1624"></path><path d="M281.5 635c-37.6-28.8-44.8-82.8-16-120.3s82.8-44.8 120.3-16c37.6 28.8 44.8 82.8 16 120.3-28.7 37.6-82.7 44.8-120.3 16z m97.8-127.8c-32.9-25.2-80.1-18.9-105.2 14-25.2 32.9-18.9 80.1 14 105.2 32.9 25.2 80.1 18.9 105.2-14 25.1-32.8 18.8-80-14-105.2z" fill="#333333" p-id="1625"></path><path d="M222.8 711.7m-80.4 0a80.4 80.4 0 1 0 160.8 0 80.4 80.4 0 1 0-160.8 0Z" fill="#CE302F" p-id="1626"></path><path d="M170.6 779.9c-37.6-28.8-44.8-82.8-16-120.3 28.8-37.6 82.8-44.8 120.3-16 37.6 28.8 44.8 82.8 16 120.3-28.7 37.6-82.7 44.7-120.3 16z m97.8-127.8c-32.9-25.2-80.1-18.9-105.2 14-25.2 32.9-18.9 80.1 14 105.2s80.1 18.9 105.2-14c25.1-32.9 18.9-80.1-14-105.2z" fill="#333333" p-id="1627"></path><path d="M395.782582 480.919814a71.6 76.4 37.426 1 0 92.862102-121.344427 71.6 76.4 37.426 1 0-92.862102 121.344427Z" fill="#D34242" p-id="1628"></path><path d="M289.684582 630.215862a71.6 76.4 37.426 1 0 92.862102-121.344427 71.6 76.4 37.426 1 0-92.862102 121.344427Z" fill="#D34242" p-id="1629"></path><path d="M179.033088 774.715612a71.6 76.4 37.426 1 0 92.862102-121.344427 71.6 76.4 37.426 1 0-92.862102 121.344427Z" fill="#D34242" p-id="1630"></path><path d="M730.8 47.8m-18.5 0a18.5 18.5 0 1 0 37 0 18.5 18.5 0 1 0-37 0Z" fill="#F8B739" p-id="1631"></path><path d="M716.3 66.8c-10.5-8-12.5-23-4.5-33.5s23-12.5 33.5-4.5 12.5 23 4.5 33.5-23 12.5-33.5 4.5z m22.5-29.4c-5.7-4.4-14-3.3-18.4 2.4s-3.3 14 2.4 18.4c5.7 4.4 14 3.3 18.4-2.4 4.4-5.7 3.4-14-2.4-18.4z" fill="#333333" p-id="1632"></path><path d="M258.5 945.5c-4.8-3.7-5.7-10.6-2-15.4l561.9-734.2c3.7-4.8 10.6-5.7 15.4-2 4.8 3.7 5.7 10.6 2 15.4L273.9 943.5c-3.7 4.8-10.6 5.7-15.4 2z" fill="#CE302F" p-id="1633"></path><path d="M255.2 949.8c-7.2-5.5-8.5-15.8-3.1-22.9L814 192.7c5.5-7.2 15.8-8.5 22.9-3.1 7.2 5.5 8.5 15.8 3.1 22.9L278.2 946.8c-5.5 7.1-15.8 8.5-23 3z m575.2-751.6c-2.4-1.9-5.9-1.4-7.8 1L260.7 933.4c-1.9 2.4-1.4 5.9 1 7.8 2.4 1.9 5.9 1.4 7.8-1l562-734.2c1.8-2.4 1.4-5.9-1.1-7.8z" fill="#333333" p-id="1634"></path><path d="M712.8 351.9m-80.4 0a80.4 80.4 0 1 0 160.8 0 80.4 80.4 0 1 0-160.8 0Z" fill="#CE302F" p-id="1635"></path><path d="M660.6 420.1c-37.6-28.8-44.8-82.8-16-120.3 28.8-37.6 82.8-44.8 120.3-16 37.6 28.8 44.8 82.8 16 120.3-28.7 37.6-82.7 44.7-120.3 16z m97.8-127.8c-32.9-25.2-80.1-18.9-105.2 14-25.2 32.9-18.9 80.1 14 105.2 32.9 25.2 80.1 18.9 105.2-14s18.9-80.1-14-105.2z" fill="#333333" p-id="1636"></path><path d="M823.7 207m-80.4 0a80.4 80.4 0 1 0 160.8 0 80.4 80.4 0 1 0-160.8 0Z" fill="#CE302F" p-id="1637"></path><path d="M771.5 275.2c-37.6-28.8-44.8-82.8-16-120.3 28.8-37.6 82.8-44.8 120.3-16 37.6 28.8 44.8 82.8 16 120.3s-82.7 44.8-120.3 16z m97.8-127.8c-32.9-25.2-80.1-18.9-105.2 14-25.2 32.9-18.9 80.1 14 105.2 32.9 25.2 80.1 18.9 105.2-14s18.8-80-14-105.2z" fill="#333333" p-id="1638"></path><path d="M771.493233 266.596078a71.6 77.9 37.426 1 0 94.685311-123.726844 71.6 77.9 37.426 1 0-94.685311 123.726844Z" fill="#D34242" p-id="1639"></path><path d="M669.135318 414.864128a71.6 76.4 37.426 1 0 92.862102-121.344427 71.6 76.4 37.426 1 0-92.862102 121.344427Z" fill="#D34242" p-id="1640"></path><path d="M601.9 496.8m-80.4 0a80.4 80.4 0 1 0 160.8 0 80.4 80.4 0 1 0-160.8 0Z" fill="#CE302F" p-id="1641"></path><path d="M549.8 564.9c-37.6-28.8-44.8-82.8-16-120.3 28.8-37.6 82.8-44.8 120.3-16 37.6 28.8 44.8 82.8 16 120.3-28.8 37.6-82.8 44.8-120.3 16z m97.7-127.7c-32.9-25.2-80.1-18.9-105.2 14-25.2 32.9-18.9 80.1 14 105.2 32.9 25.2 80.1 18.9 105.2-14 25.2-32.9 18.9-80.1-14-105.2z" fill="#333333" p-id="1642"></path><path d="M491.1 641.6m-80.4 0a80.4 80.4 0 1 0 160.8 0 80.4 80.4 0 1 0-160.8 0Z" fill="#CE302F" p-id="1643"></path><path d="M438.9 709.8c-37.6-28.8-44.8-82.8-16-120.3 28.8-37.6 82.8-44.8 120.3-16 37.6 28.8 44.8 82.8 16 120.3-28.7 37.6-82.7 44.8-120.3 16zM536.7 582c-32.9-25.2-80.1-18.9-105.2 14-25.2 32.9-18.9 80.1 14 105.2 32.9 25.2 80.1 18.9 105.2-14 25.1-32.8 18.8-80-14-105.2z" fill="#333333" p-id="1644"></path><path d="M380.2 786.5m-80.4 0a80.4 80.4 0 1 0 160.8 0 80.4 80.4 0 1 0-160.8 0Z" fill="#CE302F" p-id="1645"></path><path d="M328 854.7c-37.6-28.8-44.8-82.8-16-120.3 28.8-37.6 82.8-44.8 120.3-16 37.6 28.8 44.8 82.8 16 120.3-28.7 37.6-82.7 44.8-120.3 16z m97.8-127.8c-32.9-25.2-80.1-18.9-105.2 14-25.2 32.9-18.9 80.1 14 105.2s80.1 18.9 105.2-14c25.1-32.8 18.9-80-14-105.2z" fill="#333333" p-id="1646"></path><path d="M553.158748 555.733562a71.6 76.4 37.426 1 0 92.862102-121.344427 71.6 76.4 37.426 1 0-92.862102 121.344427Z" fill="#D34242" p-id="1647"></path><path d="M447.059954 705.030003a71.6 76.4 37.426 1 0 92.862102-121.344427 71.6 76.4 37.426 1 0-92.862102 121.344427Z" fill="#D34242" p-id="1648"></path><path d="M336.487874 849.590527a71.6 76.4 37.426 1 0 92.862102-121.344427 71.6 76.4 37.426 1 0-92.862102 121.344427Z" fill="#D34242" p-id="1649"></path><path d="M888.2 122.7m-18.5 0a18.5 18.5 0 1 0 37 0 18.5 18.5 0 1 0-37 0Z" fill="#F8B739" p-id="1650"></path><path d="M873.7 141.6c-10.5-8-12.5-23-4.5-33.5s23-12.5 33.5-4.5 12.5 23 4.5 33.5c-8 10.6-23 12.6-33.5 4.5z m22.5-29.4c-5.7-4.4-14-3.3-18.4 2.4s-3.3 14 2.4 18.4c5.7 4.4 14 3.3 18.4-2.4 4.4-5.7 3.3-14-2.4-18.4z" fill="#333333" p-id="1651"></path></svg>